<?xml version="1.0" encoding="UTF-8"?>
<svg id="Ebene_1" data-name="Ebene 1" xmlns="http://www.w3.org/2000/svg" viewBox="0 0 708.66 708.66">
  <defs>
    <style>
      .cls-1 {
        fill: #c6e6ef;
      }

      .cls-1, .cls-2, .cls-3, .cls-4, .cls-5, .cls-6 {
        stroke-width: 0px;
      }

      .cls-1, .cls-7, .cls-3, .cls-4, .cls-8, .cls-5, .cls-6 {
        fill-rule: evenodd;
      }

      .cls-2, .cls-8, .cls-5 {
        fill: none;
      }

      .cls-7 {
        stroke: #00b1bb;
        stroke-width: 2.15px;
      }

      .cls-7, .cls-4 {
        fill: #00b1bb;
      }

      .cls-7, .cls-8 {
        stroke-miterlimit: 10;
      }

      .cls-3 {
        fill: #00686f;
      }

      .cls-8 {
        stroke: #e6007e;
        stroke-width: .11px;
      }

      .cls-6 {
        fill: #7bbfc8;
      }
    </style>
  </defs>
  <path class="cls-1" d="m578.61,639.4c-9.31-2.02-17.91-2.63-26.61-1.9-16.57,1.41-32.54,5.67-48.45,10.28-5.63,1.64-11.33,3.11-17,4.6-10.87,2.81-21.58,2.2-32.1-1.65-20.08-7.35-41.06-11.5-61.63-17.08-3.95-1.06-7.93-2.07-12.05-2.71,18.66,14.49,39.51,24.38,62.42,30.03,23.02,5.69,46.27,6.68,69.69,3.01,23.36-3.63,45.05-11.75,65.74-24.58Z"/>
  <path class="cls-4" d="m319.46,544.15c-1.03.2-2.05.58-3.07.53-9.98-.3-19.88-1.5-29.78-2.93-15.12-2.18-29.79-6.07-44.14-11.02-15.43-5.34-30.35-12.02-44.2-20.73-8.18-5.14-16.31-10.38-24.03-16.17-7.12-5.3-13.74-11.29-20.37-17.21-4.29-3.83-8.37-7.92-12.28-12.15-7.85-8.46-14.85-17.58-21.51-26.99-8.2-11.59-14.9-23.97-20.96-36.76-9.92-20.94-16.92-42.86-20.28-65.71-2.05-13.96-5.79-27.58-7.58-41.55-1.03-8.07-1.82-16.15-2.76-24.23-1.28-11.39-1.18-22.83-.52-34.21.57-9.3,1.92-18.56,2.92-27.83.18-1.57.33-3.16.54-5.43-.71,1.01-1.15,1.43-1.39,1.97-5.86,13.22-11.09,26.65-14.4,40.77-2.12,9.17-3.71,18.47-5.43,27.73-.67,3.63-.99,7.29-1.51,10.95-.07.36-.44.66-.67,1-.21,11.34-.41,22.67-.61,34.01.25,1.55.52,3.07.72,4.61,1.15,8.69,1.82,17.48,3.56,26.06,1.94,9.77,4.61,19.4,7.32,28.98,3.88,13.74,9.47,26.83,16.02,39.46,6.62,12.72,14.17,24.93,22.97,36.26,7.41,9.53,15.3,18.7,24.11,26.99,5.3,4.97,10.82,9.74,16.43,14.37,14.14,11.67,29.59,21.32,46.03,29.4,14.85,7.3,30.26,13.12,46.35,16.98,8.84,2.12,17.81,3.69,26.77,5.19,12.36,2.07,24.85,2.76,37.36,2.49,6.92-.16,13.84-.93,20.76-1.39,1.62-.08,3.27-.03,4.9-.02.92-.21,1.81-.49,2.73-.64,3.94-.62,7.89-1.2,11.75-1.82-4.1-.06-8.21-.09-12.33-.24-1.14-.04-2.29-.44-3.42-.7Z"/>
  <path class="cls-4" d="m495.17,311.26c.14-5.42.43-10.83.31-16.22-.15-6.3-.43-12.6-1.13-18.85-.72-6.23-1.81-12.43-3.12-18.58-4.15-19.38-11.28-37.64-21.05-54.87-9.58-16.94-21.6-32.04-35.73-45.44-14.62-13.84-31.05-25.16-49.18-33.95-15.37-7.46-31.54-12.74-48.35-16.01-15.58-3.04-31.32-3.89-47.08-3.23-12.99.55-25.89,2.47-38.49,5.92-1.25.36-2.51.59-3.77.94-.4.1-.77.37-1.41.7.85,2.1,1.59,4.21,2.53,6.26,3.47,7.6,7.02,15.17,10.5,22.79,9.27,20.27,18.39,40.6,27.79,60.8,12.36,26.56,26.84,51.96,43.28,76.17,9.06,13.38,18.9,26.26,28.47,39.27,10.11,13.73,20.45,27.26,30.44,41.07,8.65,11.95,17.08,24.07,25.37,36.27,5.13,7.52,9.85,15.34,14.72,23.05,3.87,6.13,7.66,12.32,11.51,18.49,4.02-4.57,8.22-8.95,12-13.7,17.46-21.82,29.83-46.26,36.79-73.35,3.16-12.31,5.63-24.74,5.6-37.54Z"/>
  <path class="cls-1" d="m517.19,313.85c-.77,7.44-1.34,14.9-2.38,22.3-1.94,13.59-5.45,26.77-10.04,39.65-6.23,17.5-14.56,33.94-24.92,49.34-.29.44-.46.96-.72,1.45-.09.2-.19.41-.29.63.22-.11.42-.22.64-.32,2.51-2.69,5.13-5.24,7.48-8.05,10.79-12.79,20.04-26.58,27.55-41.51,8.62-17.16,15.21-35.07,19-53.92.34-1.79.98-3.5,1.49-5.26,20.34,5.78,38.91,15.18,55.76,27.89,26.66,20.07,46.22,45.65,58.4,76.73,11.22,28.72,14.58,58.41,10.26,88.9-2.7,19.11-8.44,37.34-17.27,54.54-2.18,4.23-4.6,8.35-6.9,12.51-.67-.23-.97-.33-1.26-.46-16.42-8.07-33-15.77-50.21-22-8.2-2.98-16.56-5.43-25.27-6.38-11.48-1.27-22.4,1.1-32.85,5.52-12.2,5.18-24.19,10.96-36.29,16.41-1.18.54-2.81.98-3.97.61-10.98-3.42-21.99-6.91-32.37-12.05-4.78-2.37-9.56-4.77-14.46-6.84-7.21-3.1-14.6-3.34-21.86-.08-1.77.79-3.15.73-4.89-.11-8.25-3.92-16.52-7.92-25.63-9.52-5.79-1.03-11.75-1.2-16.54,2.79-2.67,2.22-5.11,2.49-8.27,2.12-6.86-.78-13.22.87-18.72,5.23-5.38,4.27-5.41,8.77-.17,13.27.39.37.82.72,1.29,1,3.97,2.48,7.86,5.1,11.93,7.38,9.21,5.15,18.67,9.91,26.93,16.61.74.62,1.49,1.26,2.25,1.89-.14.18-.28.4-.4.58-1.16-.19-2.33-.41-3.5-.57-11.47-1.67-22.95-4.72-34.42-.05-11.09-14.3-19.61-29.78-25.84-46.51.92-.21,1.81-.49,2.73-.64,3.94-.62,7.89-1.2,11.75-1.82-4.1-.06-8.21-.09-12.33-.24-1.14-.04-2.29-.44-3.42-.7-.55-1.86-1.11-3.7-1.75-5.82.85.01,1.4-.03,1.92.05,12.43,1.91,24.91,2.49,37.47,2.45,1.39,0,2.82-.23,4.17-.58,11.23-3.09,22.23-6.93,32.87-11.71,5.32-2.4,10.57-4.92,15.89-7.4.3.36.57.58.7.86,3.21,6.93,8.51,10.53,16.26,10.32.78-.03,1.76.31,2.3.82,4.64,4.24,10.03,4.81,15.88,3.7,1.21-.24,2.62-.19,3.74.23,4.68,1.67,9.06,1.1,13.17-1.45,1.56-.97,3-1.36,4.85-1.17,5.43.49,9.88-1.59,13-5.97,1.15-1.61,2.27-1.94,4.01-1.97,14.05-.06,22.95-9.71,22.08-23.75-.45-7.05-3.93-11.07-10.85-12.26-3.44-.61-6.94-.8-10.35-1.48-1.73-.35-3.73-.99-4.94-2.18-3.4-3.37-6.44-7.07-9.74-10.76-.01.03.31-.42.67-.81,17.33-17.9,31.64-37.93,42.84-60.19,8.91-17.68,15.62-36.13,19.87-55.48.18-.86.38-1.73.58-2.61.04-.21.07-.43.11-.65.81-3.25,1.59-6.49,2.38-9.74-.29-.07-.58-.15-.89-.2-.72,2.67-1.4,5.32-2.09,8.01-.08.17-.15.35-.16.53-.17.47-.36.92-.52,1.39-14.51,43.1-39.64,78.75-75.08,107.55-.91-1.2-1.66-2.11-2.28-3.1-3.57-5.74-7.16-11.44-10.65-17.22-1.5-2.49-2.75-5.13-4.1-7.71,4.02-4.57,8.22-8.95,12-13.7,17.46-21.82,29.83-46.26,36.79-73.35,3.16-12.31,5.63-24.74,5.6-37.54,7.33.86,14.67,1.73,22.02,2.59Zm-38.95,114.63c.04-.07.17-.14.17-.22,0-.07-.12-.13-.19-.2-.06.06-.12.14-.18.22.07.06.12.13.21.2Z"/>
  <path class="cls-4" d="m367.78,483.2c-2.91-3.89-5.6-7.98-8.76-11.64-10.31-11.88-23.05-20-38.2-24.37-11.07-3.21-22.42-4.78-33.78-6.55-11.33-1.76-22.77-3.36-33.34-8.3-8.45-3.94-15.43-9.4-19.22-18.17-3.07-7.13-3.21-14.5-1.54-22.02,1.38-6.18,3.56-12.04,5.97-17.87,2.08-4.99,3.85-10.13,5.52-15.28,3.33-10.38,2.66-20.8-.38-31.11-3.57-12.1-9.75-22.91-16.97-33.21-9.09-12.96-19.55-24.75-30.84-35.79-9.64-9.39-19.67-18.37-29.52-27.53-2.62-2.45-5.27-4.89-7.82-7.4-6.36-6.26-12.7-12.56-19.01-18.86-2.31-2.29-4.53-4.65-7.12-7.35-2.91,5.35-5.86,10.28-8.35,15.44-5.88,12.12-10.75,24.64-13.95,37.78-2.24,9.18-4.42,18.36-4.84,27.82-.5,10.44-1.09,20.88-1.02,31.32.04,6.13,1.3,12.27,1.98,18.4,1.38,12.12,4.63,23.82,8.56,35.35,4.31,12.68,10.1,24.69,16.98,36.22,7.83,13.14,17.05,25.19,27.74,36.11,11.75,12,24.76,22.46,39.24,31.08,11.98,7.15,24.45,13.19,37.71,17.66,10.38,3.49,20.97,6.39,31.82,7.93,10.85,1.54,21.75,2.9,32.8,2.61,2.91-.06,5.82-.29,8.74-.47,9.55-.16,18.99-1.48,28.31-3.41,9.99-2.02,19.83-4.52,29.31-8.37Z"/>
  <path class="cls-4" d="m497.1,211.79c-1.49-4.04-2.88-8.1-4.43-12.12-6.39-16.38-14.41-31.9-24.01-46.6-5.94-9.1-12.11-18.04-19.62-25.97-6.41-6.82-12.45-14.05-19.26-20.41-7.84-7.34-16.15-14.22-24.68-20.75-15.42-11.81-42.29-23.51-53.16-25.89-15.53-3.55-43.23-3.84-65.57-2.13-9.88.76-19.47,3.05-29.05,5.54-9.54,2.52-18.92,5.6-28.37,9.67,2.12,4.95,4.17,9.79,6.31,14.79,52.94-13.3,104.25-9.56,153.49,13.98,49.24,23.53,84.93,60.61,107.54,110.35.29-.16.55-.29.81-.46Z"/>
  <path class="cls-4" d="m517.19,313.85c-.77,7.44-1.34,14.9-2.38,22.3-1.94,13.59-5.45,26.77-10.04,39.65-6.23,17.5-14.56,33.94-24.92,49.34-.29.44-.46.96-.72,1.45.12.09.24.2.34.31,2.51-2.69,5.13-5.24,7.48-8.05,10.79-12.79,20.04-26.58,27.55-41.51,8.62-17.16,15.21-35.07,19-53.92.34-1.79.98-3.5,1.49-5.26.48-3.85.99-7.73,1.51-11.59.36-2.78.99-5.56,1.12-8.36.34-7.67.5-15.39.72-23.08.02-.66-.01-1.32,0-1.97.19-9.24-.82-18.4-2.05-27.55-1.73-12.61-4.62-24.92-8.51-37.03-5.52-17.14-13.11-33.3-22.55-48.66-9.64-15.64-21.08-29.8-34.31-42.47-6.1-5.84-12.8-11.09-19.32-16.47-3.41-2.8-7.05-5.31-10.61-7.93-.69-.5-1.47-.89-2.54-1.02,1.12,1.32,2.14,2.7,3.36,3.87,9.63,9.24,17.44,19.96,25.03,30.82,6.1,8.76,11.3,18.01,16.15,27.51,5.71,11.15,10.45,22.71,14.42,34.57,4.35,12.96,7.66,26.22,9.49,39.8,1.14,8.52,3.91,16.67,5.45,25.06,1.67,8.93,2.98,17.96,4.15,26.97,1.43,11.03,1.17,22.13.68,33.22Z"/>
  <path class="cls-4" d="m100.57,152.7c-.84,1.09-1.5,2.02-2.26,2.88-6.25,7-9.51,15.45-11.69,24.4-1.86,7.68-3.79,15.35-5.34,23.11-1.18,5.82-1.83,11.75-2.68,17.66-1.3,8.93-1.63,17.93-1.9,26.96-.31,9.65-.17,19.27.82,28.88.62,5.91,1.21,11.87,1.84,17.79.06.58.33,1.16.63,1.7-.84-44.95,8.9-87.33,30.14-127.11-3.08-5.27-6.19-10.58-9.56-16.26Z"/>
  <path class="cls-1" d="m367.78,483.2c-9.48,3.84-19.32,6.34-29.31,8.37-9.33,1.93-18.76,3.25-28.31,3.41-.04.4-.05.82-.1,1.2.07.7.15,1.4.2,2.09.5,5.04.99,10.1,1.52,15.3,24.35.53,47.61-3.09,70.82-10.03-2.22-3.06-4.21-5.81-6.17-8.6-2.18-3.1-4.29-6.27-6.47-9.38-.62-.87-1.47-1.59-2.19-2.35Z"/>
  <path class="cls-4" d="m297.53,238.22c-3.4-6.94-6.74-13.91-10.2-20.81-13.12-26.17-25.7-52.61-37.41-79.45-6.26-14.36-12.85-28.6-18.74-43.12-4.92-12.08-8.99-24.5-13.49-36.77-1.92-5.19-3.96-10.35-5.93-15.54-.13.32-.26.63-.38.96,8.25,26.86,16.95,53.52,28.16,79.34,13.17,30.37,27.12,60.39,42.73,89.6,4.25,7.98,8.8,15.79,13.3,23.64.47.8,1.33,1.41,2.03,2.1l-.06.06Z"/>
  <path class="cls-1" d="m345.35,557.71c5.69-4.21,12.12-5.08,18.78-3.46,3.98.97,8.01,2.25,11.63,4.13,17.21,8.92,34.27,18.1,51.38,27.17,1.9,1.02,3.77,2.09,5.89,2.78-.48-.41-.91-.88-1.44-1.23-16.57-10.5-33.4-20.52-51.39-28.4-5.15-2.26-10.57-4.01-16.02-5.45-4.34-1.15-8.88-.92-13.22.46-2.24.74-4.6,1.46-5.55,4.02l-.06-.04Z"/>
  <path class="cls-4" d="m94.06,118.69c.22-.42.44-.83.68-1.25-.8-2.48-1.6-4.97-2.4-7.44-.3.1-.6.18-.91.29.88,2.81,1.75,5.61,2.63,8.4Z"/>
  <path class="cls-1" d="m451.77,611.7c-.7-1.23-1.38-2.45-2.08-3.68-.56-2.45-1.13-4.91-1.7-7.38-.29.06-.57.14-.87.21.66,2.78,1.32,5.57,1.97,8.36.58,1.51,1.09,3.05,1.79,4.51.24.48,1.13,1.08,1.46.95.58-.2,1.24-.88,1.43-1.47.27-.91.31-1.93.21-2.88-.26-2.91-.65-5.79-1.36-8.66-.07,3.26-.12,6.54-.18,9.79-.22.09-.45.18-.68.27Z"/>
  <g>
    <path class="cls-1" d="m548.2,625.72c-16.93,3.14-33.5,7.74-50.11,12.22-6.09,1.65-12.17,3.35-18.28,5-6.24,1.7-12.5,1.79-18.64-.44-15.11-5.45-30.84-8.47-46.37-12.29-10.34-2.55-20.44-6.06-30.69-8.96-6.5-1.85-13.07-3.38-19.6-5.03-3.25-.67-6.51-1.38-9.76-2.03-1.27-.25-2.55-.4-4.02-.62,1.64,1.29,1.64,1.28,6.19,2.05,2.12.36,4.23.8,6.35,1.22,8.68,2.46,17.54,4.45,25.99,7.52,13.67,4.94,27.79,8.06,41.83,11.54,8.22,2.03,16.3,4.71,24.31,7.46,9.67,3.3,19.25,4.2,29.14.96,7.13-2.32,14.42-4.18,21.64-6.22,14.24-4,28.49-8,43.04-10.78,9.85-1.87,19.53-1.31,29.16,1.03,5.9,1.43,11.75,3.13,17.63,4.72.02-.26.06-.52.09-.78-8.39-2.31-16.73-4.77-25.18-6.81-7.53-1.82-15.15-1.17-22.73.25Z"/>
    <path class="cls-1" d="m629.17,585.08c-6.94-3.86-13.78-7.86-20.82-11.55-12.25-6.42-24.82-12.19-38.2-16.01-11.91-3.36-23.95-4.52-36.15-1.51-8.3,2.08-15.91,5.82-23.37,9.92-8.41,4.58-16.84,9.15-25.34,13.58-10.06,5.25-20.96,7.79-32.07,9.58-4.08.67-8.19,1.27-12.25,2.04-1.09.2-2.08.24-3.01.05-.17.04-.33.13-.54.12-.05,0-.09-.05-.15-.05-.04,0-.07.04-.13.04h-.16c-6.37,2.01-12.37,3.93-18.38,5.86-1.25.5-2.77.73-3.74,1.58-2.6,2.22-5.48,3.18-8.82,2.78-7.35-4.83-14.83-9.39-21.93-14.55-7.58-5.46-15.16-10.82-23.43-15.21-.57-.28-1.16-.44-1.75-.64.14.32.22.77.46.9,11.05,5.94,20.72,13.83,30.73,21.29,3.25,2.43,6.75,4.56,10.06,7.07-5.1.36-10.02-.7-14.94-1.52-.65-.15-1.3-.31-1.95-.42-7.91-1.42-15.83-2.84-23.92-2.62-4.16.09-8.24.56-11.98,2.58-3.8,2.01-5.6,5.37-5.91,9.49-.08,1.09.66,2.21,1.01,3.31,1.04,2,3.07,1.87,4.88,2.25-1.6-1.3-3.19-2.58-4.8-3.87-.02-6,2.69-9.52,8.54-11.06,5.14-1.37,10.35-1.43,15.58-.9,3.58.36,7.12.88,10.69,1.34,1.29.19,2.57.41,3.86.61,6.99.79,14,1.58,20.99,2.37.77.68,1.86,1.23,1.1,2.57-.62,1.31-1.23,2.61-1.82,3.92-.11,2.07-.31,4.12-.26,6.16.06,1.88.46,3.69,2.23,4.82.93.49,1.84,1.12,2.84,1.44,14.83,4.88,29.7,3.49,44.68.68,9.94-1.88,19.95-3.17,29.91-4.73,5.32.08,10.62.13,15.91.2.36,0,.72,0,1.09,0,2.9.24,5.81.5,8.74.75.01-.28.03-.55.06-.81-2.85-.22-5.68-.44-8.51-.69-17.01-2.35-33.61.61-50.2,3.9-8.43,1.68-16.92,2.99-25.56,2.31-2.69-.2-5.33-.68-7.99-1.04.03-.25.04-.5.04-.75.83-.04,1.66-.11,2.49-.13,1.96-.03,3.91.02,5.88-.07,5.17-.28,6.53-1.48,6.44-6.79-.02-3.79-.78-7.55-1.21-11.32-.23-1.85-1.42-2.67-3.16-2.58-2.59.11-5.18.38-7.77.58-.52-.08-1.03-.17-1.97-.33,1.74-.92,3.12-1.68,4.52-2.44,8.87-3.17,18.12-4.57,27.38-6.01,10.67-1.65,21.46-3,31.46-7.22,8.6-3.63,16.86-8.13,25.17-12.37,8.18-4.17,16.22-8.44,24.81-11.67,13.07-4.89,26.18-4.91,39.51-1.44,13.05,3.39,25.3,8.76,37.3,14.7,7.92,3.93,15.75,7.95,23.64,11.92l-.13-.28.33-.08Zm-210.68,15.97c2.58.05,5.17.09,7.98.15,1.03,4.93,1.65,9.73,1.18,14.65-.22,2.09-1.28,3.06-3.38,3.13-5.22.21-10.42.55-15.62.68-1.58.05-3.16-.47-4.75-.75-.47-1.09-.93-2.18-1.39-3.27.25-3.59-.58-7.3,1.35-10.66,2.54-1.69,5.17-2.95,8.35-3.03,2.11-.04,4.18-.57,6.29-.89Z"/>
    <path class="cls-1" d="m358.89,571.08s.03.02.04.03c0-.02,0-.04-.02-.06l-.02.03Z"/>
  </g>
  <path class="cls-7" d="m269.43,339.43c1.47,6.24,3.19,12.43,4.49,18.72,1.27,6.23,5.01,10.31,10.55,12.82,3.46,1.56,7.12,2.7,10.67,4.02,1.13.4,2.28.79,3.41,1.16.11-.27.23-.58.33-.87-.77-.32-1.56-.65-2.34-.96l-.21-.13c-.22-.13-.42-.25-.65-.36-3.56-2.09-7.24-4.01-10.67-6.31-3.93-2.6-6.57-6.2-7.48-11.02-.74-4.06-1.89-8.05-2.85-12.07-1.72-7.48-5-14.34-8.81-21.01,1.19,5.34,2.34,10.66,3.57,16Z"/>
  <path class="cls-4" d="m298.13,239.59c.17.78.35,1.52.56,2.3.24-.12.51-.26.78-.36-.46-.64-.88-1.29-1.33-1.93h0Z"/>
  <path class="cls-4" d="m305.93,251.9c-.3-.57-.65-1.17-.97-1.77-.19.11-.39.23-.6.34.39.62.77,1.22,1.16,1.86.16-.13.29-.27.41-.43Z"/>
  <path class="cls-6" d="m310.27,498.27c-.05-.69-.13-1.39-.2-2.09.07.7.15,1.4.2,2.09Z"/>
  <path class="cls-4" d="m303.17,248.17c-.07-.29-.13-.59-.2-.89.07.3.15.58.22.87h-.02Z"/>
  <path class="cls-4" d="m297.58,238.16c.18.49.37.96.55,1.43h0c-.19-.47-.4-.92-.6-1.37l.06-.06Z"/>
  <path class="cls-1" d="m448.57,577.35c-10.88-5.96-21.68-12.08-32.71-17.77-9.47-4.91-19.3-9.16-29.88-11.09-3.18-.56-6.51-.36-9.76-.53-1.3.56-2.61,1.13-3.92,1.69-.44.44-.86.9-1.32,1.32-.2.44-.43.88-.63,1.33h0c.24-.4.52-.82.75-1.23.46-.41.91-.82,1.38-1.24,1.25-.4,2.47-.79,3.72-1.19,7.15-.48,13.77,1.73,20.36,3.98,10.57,3.59,20.33,8.88,30.09,14.21,7.27,3.97,14.64,7.66,22,11.46.24.13.6.11,1.41.24-.75-.61-1.1-.97-1.5-1.18Z"/>
  <path class="cls-4" d="m307.05,253.77c-.17-.38-.32-.77-.48-1.13-.14.13-.27.26-.4.41.17.37.33.74.46,1.09.14-.12.28-.26.42-.37Z"/>
  <path class="cls-6" d="m370.35,552.3c-.15.08-.31.18-.46.26.15-.08.32-.16.46-.24h0Z"/>
  <path class="cls-4" d="m306.57,252.64c-.2-.24-.42-.49-.64-.74-.12.16-.25.3-.41.43.21.25.43.47.64.72.13-.15.26-.28.4-.41Z"/>
  <path class="cls-6" d="m295.66,373.84c.23.11.43.23.65.36-.22-.13-.42-.25-.65-.36Z"/>
  <path class="cls-4" d="m307.76,254.68c-.22-.31-.48-.61-.71-.92-.14.12-.28.25-.42.37.23.3.46.64.68.95.15-.12.3-.26.44-.4Z"/>
  <path class="cls-3" d="m495.54,498.37v-.27c.03.09.04.15.07.22l-.07.05Z"/>
  <g>
    <path class="cls-4" d="m94.06,118.69c8.66,29.87,24.84,55.33,46.28,77.45,14.23,14.7,29.22,28.69,44.04,42.79,15.48,14.73,30.73,29.64,43.68,46.72,7.48,9.83,13.91,20.25,18.59,31.75,7.28,18.06,7.41,35.97-.11,54.01-2.71,6.5-4.96,13.25-7.01,20-.99,3.28-1.42,6.84-1.5,10.28-.23,9.57,4.36,16.6,12.19,21.74,7.55,4.96,16.08,7.16,24.77,8.71,11.79,2.13,23.66,3.86,35.47,5.87,19.33,3.28,36.25,11.53,50.06,25.51,4.88,4.91,8.89,10.72,13.14,16.23,4.98,6.46,9.75,13.07,14.65,19.61.31.41.79.71,1.19,1.07.22.2.43.43.65.67.21.22.41.43.64.66.26.12.52.27.78.39-.11-.3-.23-.62-.34-.92-.16-.18-.32-.38-.52-.56-.19-.24-.41-.47-.63-.69-6.97-9.74-13.88-19.51-20.94-29.2-12.6-17.22-29.64-28.02-50.17-33.14-9.46-2.37-19.23-3.65-28.91-5.18-9.56-1.53-19.16-2.98-28.24-6.55-3.72-1.47-7.41-3.22-10.77-5.41-8.1-5.31-11.46-13.06-9.64-22.52,1.1-5.84,3.07-11.54,4.94-17.21,2.01-6.09,4.55-12.03,6.52-18.11,3.9-12.09,3.44-24.26.16-36.41-4.57-16.94-13.72-31.4-24.42-45.02-13.71-17.47-29.92-32.53-46.09-47.62-14.17-13.22-28.35-26.43-42.07-40.12-19.17-19.14-32.8-41.94-42.44-67.18-1.13-2.95-2.19-5.92-3.26-8.87-.25.41-.46.83-.68,1.25Z"/>
    <path class="cls-4" d="m316.38,270.6c13.42,22.04,28.7,42.83,43.81,63.74,17.7,24.43,35.3,48.93,52.31,73.8,10,14.63,18.94,30.01,28.07,45.21,9.15,15.21,20.96,28.01,34.29,39.55,2.85,2.49,6.03,3.76,9.73,4.04,2.41.31,4.81.62,7.2.92.06-.27.11-.53.14-.8-1.34-.26-2.67-.53-4.02-.78-6.4-.27-11.18-3.13-15.9-7.62-15.31-14.48-27.15-31.42-37.29-49.69-15.35-27.65-33.13-53.69-51.91-79.08-13.48-18.2-27.34-36.1-40.55-54.49-10.52-14.68-20.3-29.89-30.41-44.87-1.34-1.97-2.72-3.91-4.1-5.84-.14.14-.29.28-.44.4,3.02,5.17,5.96,10.38,9.06,15.51Z"/>
    <path class="cls-4" d="m497.88,503.41c-.07,1.71-.13,3.48-.48,5.15-.8,3.91-3.04,6.93-6.93,7.92-3.52.89-7.22,1.01-10.88,1.4-1.02.11-2.07-.02-3.13-.04,6.97,4.24,17.93,1.77,21.72-5.19,2.29-4.13,1.98-8.36.41-12.58-.44-1.24-1.38-2.16-2.93-1.71,1.75,1.23,2.34,3.01,2.23,5.05Z"/>
    <path class="cls-4" d="m495.54,498.37s.07,0,.1-.01c-.01-.01-.02-.03-.04-.03l-.07.05Z"/>
    <path class="cls-4" d="m462.8,525.41c2.05,2.83,6.24,3.54,9.64,1.63,3.2-1.77,3.9-4.36,2.09-8.72-.65,7.26-3.88,8.58-11.73,7.09Z"/>
    <path class="cls-4" d="m445.87,528.19c-6.27,3.28-10.47-.36-14.69-4.85,1.77,6.22,8.35,9.29,13.48,6.57.56-.29.84-1.11,1.21-1.72Z"/>
    <path class="cls-4" d="m455.71,529.39c-2.05.31-4.34-.81-6.52-1.29-.5-.24-1.01-.46-1.51-.72-.09.16-.17.31-.24.45.36.31.71.62,1.05.94,1.54.8,2.96,1.86,4.58,2.32,3.89,1.16,7.07-.85,8.29-4.92-1.87,1.12-3.63,2.91-5.65,3.22Z"/>
    <path class="cls-4" d="m417.9,517.89c-.65-1.21-1.51-2.33-2.26-3.49-.25-.32-.51-.61-.76-.93-.16-.35-.31-.72-.48-1.09-.22-.21-.45-.43-.67-.64-.44-.43-.88-.84-1.32-1.26-.14.15-.3.33-.45.49.49.34.96.7,1.47,1.06.2.23.4.46.62.72.23.55.46,1.1.7,1.66.09.19.24.35.44.47,1.62,2.88,2.98,5.98,5,8.56,2.08,2.63,4.47,2.75,7.54,1.16-5.46.87-7.74-2.74-9.83-6.7Z"/>
    <path class="cls-4" d="m404.45,508.69c-4.07-1.32-8.11-2.77-11.63-6.08,1.38,3.26,6.95,6.09,11.66,6.25,1.48.59,2.99,1.17,4.49,1.77.09-.3.17-.61.27-.89-1.59-.33-3.2-.69-4.8-1.04Z"/>
    <path class="cls-4" d="m429.51,523.79s-.17-.23-.18-.21c-.28.18-.6.39-.86.59.1.12.2.22.29.34.24-.24.5-.47.75-.72Z"/>
    <path class="cls-4" d="m446.11,528.01c-.05.01-.11.03-.16.04-.02.04-.05.09-.08.14.05-.02.08-.03.13-.06.03-.05.07-.08.11-.12Z"/>
    <path class="cls-4" d="m446.21,527.9s-.07.07-.1.11c.09-.03.18-.06.26-.08-.04-.01-.12-.06-.16-.03Z"/>
  </g>
  <path class="cls-1" d="m453.81,564.46c-6.94-4.37-14.34-7.87-22.46-9.43-4.34-.82-8.68-1.02-12.71,1.34-.27.15-.55.33-.82.49-.15.21-.32.41-.49.6.29-.06.61-.12.9-.18.56-.22,1.12-.45,1.67-.69,7.25-2.05,14.01-.15,20.55,2.77,3.86,1.72,7.69,3.61,11.25,5.89,7.22,4.57,14.97,7.89,22.98,10.7.24-.25.49-.52.73-.78-7.44-3.03-14.74-6.36-21.58-10.71Z"/>
  <path class="cls-4" d="m303.2,248.16c.21.21.42.46.62.69l.04-.03c-.22-.22-.45-.45-.68-.65h.02Z"/>
  <path class="cls-4" d="m303.81,248.85c.09.18.16.34.23.5-.07-.17-.13-.35-.2-.53l-.04.03Z"/>
  <path class="cls-6" d="m478.04,428.27c.07.06.12.13.21.2.04-.07.17-.14.17-.22,0-.07-.12-.13-.19-.2-.06.06-.12.14-.18.22Z"/>
  <path class="cls-6" d="m479.13,426.59c-.09.2-.19.41-.29.63.22-.11.42-.22.64-.32-.1-.11-.22-.21-.34-.31Z"/>
  <path class="cls-4" d="m307.26,253.99c-3.4-6.94-16.52-29.66-19.98-36.56-13.12-26.17-25.7-52.62-37.41-79.46-6.26-14.36-12.85-28.6-18.74-43.12-4.92-12.08-8.99-24.5-13.48-36.76-1.92-5.2-3.97-10.36-5.93-15.55-.13.32-.26.64-.38.96,8.25,26.86,16.95,53.52,28.16,79.34,13.17,30.37,27.12,60.4,42.73,89.6,4.25,7.98,8.8,15.79,13.3,23.64.47.8,10.29,17.21,10.99,17.91l.29.35c-.14.14.63.65.47.77,3.02,5.16,5.97,10.38,9.07,15.51,13.41,22.04,28.7,42.83,43.8,63.74,17.69,24.43,35.3,48.92,52.31,73.8,10,14.63,18.94,30.01,28.07,45.2,9.15,15.21,20.96,28.01,34.29,39.55,2.85,2.49,6.04,3.76,9.73,4.04,2.4.31,4.81.62,7.19.92.06-.28.11-.54.15-.8-1.35-.25-2.68-.53-4.02-.78-6.4-.27-11.18-3.14-15.9-7.62-15.31-14.48-27.15-31.42-37.29-49.69-15.35-27.65-33.14-53.69-51.92-79.08-13.48-18.2-27.34-36.1-40.54-54.49-10.52-14.68-20.31-29.89-30.41-44.87-1.34-1.97-2.74-4.27-4.12-6.21l-.42-.35Z"/>
  <line class="cls-2" x1="297.53" y1="238.19" x2="297.47" y2="238.24"/>
  <path class="cls-5" d="m269.38,339.45c1.47,6.25,3.18,12.43,4.49,18.72,1.26,6.23,5,10.31,10.55,12.82,3.45,1.56,7.12,2.7,10.67,4.02,1.12.4,2.28.79,3.4,1.16.11-.27.23-.58.33-.87-.77-.31-1.56-.65-2.35-.96l-.21-.12c-.22-.13-.42-.25-.64-.37-3.56-2.08-7.25-4-10.67-6.31-3.93-2.6-6.57-6.2-7.48-11.02-.75-4.06-1.89-8.05-2.84-12.07-1.73-7.48-5.01-14.33-8.81-21.01,1.19,5.35,2.34,10.66,3.57,16.01Z"/>
  <path class="cls-8" d="m310.21,498.29c-.05-.69-.13-1.39-.2-2.09.07.7.15,1.4.2,2.09Z"/>
  <path class="cls-8" d="m295.61,373.86c.22.11.42.24.64.37-.22-.13-.42-.25-.64-.37Z"/>
</svg>